<svg version="1.1" id="Capa_1" xmlns="http://www.w3.org/2000/svg" xmlns:xlink="http://www.w3.org/1999/xlink" x="0px" y="0px"
	 viewBox="0 0 512 512" style="enable-background:new 0 0 512 512;" xml:space="preserve">
<g>
	<g>
		<path d="M187.405,310.024C203.427,295.421,212,275.719,212,255c0-41.463-34.534-75-76-75c-41.462,0-76,33.534-76,75
			c0,20.599,8.481,40.331,24.596,55.023C35.017,330.191,0,378.609,0,435v62c0,8.284,6.716,15,15,15h242c8.284,0,15-6.716,15-15v-62
			C272,378.609,236.983,330.191,187.405,310.024z M136,210c24.935,0,46,20.607,46,45s-21.065,45-46,45s-46-20.607-46-45
			S111.065,210,136,210z M242,482H30v-47c0-57.897,47.552-105,106.001-105C194.449,330,242,377.103,242,435V482z"/>
	</g>
</g>
<g>
	<g>
		<path d="M377,0c-74.439,0-135,60.561-135,135c0,23.226,5.926,45.885,17.197,65.977l-16.428,49.279
			c-1.731,5.194-0.495,10.918,3.225,14.935c3.727,4.025,9.342,5.686,14.644,4.361l55.697-13.924
			C335.058,265.046,355.903,270,377,270c74.439,0,135-60.561,135-135S451.439,0,377,0z M377,240
			c-18.011,0-35.772-4.633-51.365-13.397c-3.339-1.877-7.27-2.405-10.987-1.476l-34.775,8.694l9.959-29.876
			c1.426-4.279,0.852-8.972-1.564-12.78C277.625,174.392,272,154.971,272,135c0-57.897,47.103-105,105-105
			c57.897,0,105,47.103,105,105C482,192.897,434.897,240,377,240z"/>
	</g>
</g>
<g>
	<g>
		<circle cx="377" cy="90" r="15"/>
	</g>
</g>
<g>
	<g>
		<path d="M377,120c-8.284,0-15,6.716-15,15v60c0,8.284,6.716,15,15,15s15-6.716,15-15v-60C392,126.716,385.284,120,377,120z"/>
	</g>
</g>
<g>
</g>
<g>
</g>
<g>
</g>
<g>
</g>
<g>
</g>
<g>
</g>
<g>
</g>
<g>
</g>
<g>
</g>
<g>
</g>
<g>
</g>
<g>
</g>
<g>
</g>
<g>
</g>
<g>
</g>
</svg>
