<svg width="696" height="625" viewBox="0 0 696 625" fill="none" xmlns="http://www.w3.org/2000/svg">
<g clip-path="url(#clip0)">
<path d="M680.496 569.822C674.418 590.907 656.671 605.668 638.159 618.206C635.574 619.957 632.988 621.668 630.401 623.339C630.384 623.346 630.366 623.363 630.348 623.37C630.224 623.45 630.099 623.53 629.983 623.611C629.449 623.955 628.915 624.299 628.386 624.64L628.677 624.77C628.677 624.77 628.962 624.922 628.65 624.795C628.557 624.756 628.459 624.721 628.367 624.682C617.612 620.344 606.666 615.687 598.424 607.561C589.875 599.123 584.878 585.889 589.508 574.804C590.116 573.352 590.885 571.972 591.8 570.691C592.175 570.153 592.58 569.639 593.001 569.134C595.554 566.018 598.892 563.637 602.671 562.238C606.449 560.839 610.532 560.472 614.5 561.173C618.468 561.875 622.177 563.622 625.246 566.232C628.315 568.843 630.634 572.224 631.963 576.028C633.323 563.364 622.881 552.757 612.832 544.93C602.779 537.108 591.356 528.588 589.412 515.995C588.327 508.989 590.764 502.199 595.202 496.748C595.339 496.582 595.477 496.417 595.618 496.256C601.021 489.907 608.62 485.831 616.897 484.84C632.312 483.238 647.286 491.398 658.485 502.116C676.509 519.36 687.406 545.848 680.496 569.822Z" fill="#F2F2F2"/>
<path d="M651.521 542.242C654.48 546.845 656.751 551.855 658.264 557.113C659.543 561.813 660.113 566.678 659.953 571.546C659.54 581.564 656.728 591.336 651.753 600.041C648.005 606.644 643.437 612.748 638.159 618.206C635.574 619.957 632.988 621.668 630.402 623.338C630.384 623.346 630.366 623.362 630.348 623.37C630.224 623.45 630.099 623.53 629.983 623.611C629.449 623.955 628.915 624.299 628.386 624.639C628.386 624.639 628.962 624.922 628.65 624.794C628.557 624.756 628.46 624.721 628.367 624.682C629.331 616.779 628.386 608.76 625.613 601.298C622.84 593.835 618.318 587.146 612.427 581.791C606.522 576.517 599.454 572.714 591.8 570.691C592.175 570.153 592.58 569.639 593.001 569.134C595.957 569.963 598.834 571.052 601.599 572.388C611.481 577.133 619.573 584.935 624.676 594.637C629.256 603.447 631.227 613.381 630.358 623.272C630.799 622.871 631.242 622.462 631.671 622.057C639.843 614.438 647.102 605.692 652.014 595.599C656.276 587.051 658.371 577.587 658.114 568.04C657.713 557.629 653.565 547.986 647.559 539.591C640.977 530.635 633.201 522.622 624.448 515.772C615.626 508.707 605.973 502.747 595.703 498.026C595.472 497.918 595.291 497.725 595.197 497.487C595.104 497.249 595.106 496.985 595.202 496.748C595.271 496.535 595.42 496.359 595.618 496.256C595.72 496.212 595.831 496.192 595.942 496.196C596.053 496.201 596.161 496.231 596.259 496.283C597.527 496.867 598.786 497.458 600.035 498.076C610.438 503.218 620.162 509.632 628.984 517.172C637.505 524.437 645.527 532.737 651.521 542.242Z" fill="white"/>
<path d="M56.9728 569.615H125.95L160.438 509.879L125.95 450.144H56.9728L22.4844 509.879L56.9728 569.615Z" fill="#F2F2F2"/>
<path d="M56.9728 353.615H125.95L160.438 293.879L125.95 234.144H56.9728L22.4844 293.879L56.9728 353.615Z" fill="#F2F2F2"/>
<path d="M56.9728 139.615H125.95L160.438 79.8793L125.95 20.1436H56.9728L22.4844 79.8793L56.9728 139.615Z" fill="#F2F2F2"/>
<path d="M134.693 159.759H48.2294C47.352 159.757 46.4903 159.526 45.7304 159.087C44.9705 158.648 44.3391 158.018 43.8992 157.259L0.667587 82.3789C0.230185 81.6183 0 80.7563 0 79.8789C0 79.0015 0.230185 78.1395 0.667587 77.3789L43.8993 2.5C44.3392 1.74084 44.9706 1.11043 45.7304 0.671722C46.4903 0.23302 47.352 0.00139483 48.2294 0H134.693C135.57 0.00137846 136.432 0.232987 137.192 0.671692C137.951 1.1104 138.583 1.74083 139.023 2.5L182.254 77.3789C182.692 78.1395 182.922 79.0015 182.922 79.8789C182.922 80.7563 182.692 81.6184 182.254 82.3789L139.023 157.259C138.583 158.018 137.951 158.648 137.191 159.087C136.432 159.526 135.57 159.757 134.693 159.759ZM48.2294 2.00005C47.7029 2.00088 47.1859 2.13984 46.73 2.40306C46.2741 2.66628 45.8952 3.04455 45.6312 3.50005L2.39966 78.379C2.13722 78.8353 1.99909 79.3525 1.99911 79.879C1.99914 80.4054 2.13729 80.9226 2.39977 81.379L45.6312 156.259C45.8952 156.714 46.2741 157.093 46.73 157.356C47.1859 157.619 47.7029 157.758 48.2294 157.759H134.693C135.219 157.758 135.736 157.619 136.192 157.356C136.648 157.093 137.027 156.714 137.29 156.259L180.522 81.3789C180.785 80.9226 180.923 80.4053 180.923 79.8789C180.923 79.3525 180.785 78.8352 180.522 78.3789L137.29 3.5C137.027 3.0445 136.648 2.66624 136.192 2.40302C135.736 2.13979 135.219 2.00082 134.693 2L48.2294 2.00005Z" fill="#CCCCCC"/>
<path d="M134.693 374.799H48.2294C47.352 374.797 46.4903 374.566 45.7304 374.127C44.9705 373.688 44.3391 373.058 43.8992 372.299L0.667587 297.419C0.230185 296.658 0 295.796 0 294.919C0 294.042 0.230185 293.18 0.667587 292.419L43.8993 217.54C44.3392 216.781 44.9706 216.15 45.7304 215.712C46.4903 215.273 47.352 215.041 48.2294 215.04H134.693C135.57 215.041 136.432 215.273 137.192 215.712C137.951 216.15 138.583 216.781 139.023 217.54L182.254 292.419C182.692 293.179 182.922 294.042 182.922 294.919C182.922 295.796 182.692 296.658 182.254 297.419L139.023 372.299C138.583 373.058 137.951 373.688 137.191 374.127C136.432 374.566 135.57 374.798 134.693 374.799ZM48.2294 217.04C47.7029 217.041 47.1859 217.18 46.73 217.443C46.2741 217.706 45.8952 218.085 45.6312 218.54L2.39966 293.419C2.13722 293.875 1.99909 294.393 1.99911 294.919C1.99914 295.445 2.13729 295.963 2.39977 296.419L45.6312 371.299C45.8952 371.754 46.2741 372.133 46.73 372.396C47.1859 372.659 47.7029 372.798 48.2294 372.799H134.693C135.219 372.798 135.736 372.659 136.192 372.396C136.648 372.133 137.027 371.754 137.29 371.299L180.522 296.419C180.785 295.963 180.923 295.445 180.923 294.919C180.923 294.393 180.785 293.875 180.522 293.419L137.29 218.54C137.027 218.085 136.648 217.706 136.192 217.443C135.736 217.18 135.219 217.041 134.693 217.04H48.2294Z" fill="#CCCCCC"/>
<path d="M134.693 589.839H48.2296C47.3521 589.837 46.4905 589.606 45.7306 589.167C44.9707 588.728 44.3393 588.098 43.8994 587.339L0.66777 512.459C0.23024 511.698 -2.10565e-05 510.836 1.44422e-09 509.959C2.10594e-05 509.082 0.230326 508.22 0.667892 507.459L43.8995 432.58C44.3394 431.821 44.9708 431.19 45.7306 430.752C46.4905 430.313 47.3522 430.081 48.2296 430.08H134.693C135.57 430.081 136.432 430.313 137.192 430.752C137.952 431.19 138.583 431.821 139.023 432.58L182.254 507.459C182.692 508.22 182.922 509.082 182.922 509.959C182.922 510.836 182.692 511.698 182.254 512.459L139.023 587.339C138.583 588.098 137.952 588.728 137.192 589.167C136.432 589.606 135.57 589.838 134.693 589.839ZM48.2296 432.08C47.7031 432.081 47.1861 432.22 46.7302 432.483C46.2742 432.746 45.8954 433.125 45.6314 433.58L2.39984 508.459C2.13734 508.915 1.9992 509.433 1.99922 509.959C1.99924 510.485 2.13741 511.003 2.39995 511.459L45.6314 586.339C45.8954 586.794 46.2742 587.173 46.7302 587.436C47.1861 587.699 47.7031 587.838 48.2296 587.839H134.693C135.219 587.838 135.736 587.699 136.192 587.436C136.648 587.173 137.027 586.794 137.291 586.339L180.522 511.459C180.785 511.003 180.923 510.485 180.923 509.959C180.923 509.433 180.785 508.915 180.522 508.459L137.291 433.58C137.027 433.125 136.648 432.746 136.192 432.483C135.736 432.22 135.219 432.081 134.693 432.08H48.2296Z" fill="#CCCCCC"/>
<path d="M91.3975 56.9076C89.766 55.1954 87.8132 53.8215 85.6506 52.8642C83.488 51.9069 81.158 51.385 78.7937 51.3284C76.4294 51.2718 74.0771 51.6815 71.8712 52.5342C69.6653 53.3869 67.6489 54.6658 65.9374 56.2979C64.2258 57.93 62.8526 59.8833 61.8961 62.0463C60.9396 64.2092 60.4186 66.5394 60.3629 68.9037C60.3072 71.2681 60.7178 73.6202 61.5713 75.8258C62.4248 78.0314 63.7045 80.0473 65.3372 81.7582C65.534 81.9646 65.7356 82.1662 65.942 82.3631L92.0097 108.431L117.465 82.9753C120.787 79.4913 122.615 74.846 122.558 70.0322C122.501 65.2183 120.563 60.6178 117.159 57.2137C113.755 53.8095 109.154 51.8718 104.341 51.8146C99.5268 51.7574 94.8815 53.5853 91.3974 56.9076H91.3975Z" fill="#4C6EF8"/>
<path d="M112.696 489.902C112.696 501.63 91.4609 527.376 91.4609 527.376C91.4609 527.376 70.2256 501.63 70.2256 489.902C70.2233 487.113 70.7703 484.351 71.8354 481.774C72.9005 479.197 74.4627 476.855 76.433 474.881C78.4033 472.908 80.743 471.342 83.3185 470.272C85.894 469.203 88.6549 468.651 91.4436 468.649C94.2322 468.647 96.994 469.194 99.5713 470.259C102.149 471.324 104.491 472.886 106.464 474.857C108.438 476.827 110.004 479.166 111.073 481.742C112.142 484.318 112.694 487.078 112.696 489.867L112.696 489.902Z" fill="#4C6EF8"/>
<path d="M91.4611 498.244C96.0685 498.244 99.8036 494.509 99.8036 489.902C99.8036 485.294 96.0685 481.559 91.4611 481.559C86.8537 481.559 83.1187 485.294 83.1187 489.902C83.1187 494.509 86.8537 498.244 91.4611 498.244Z" fill="white"/>
<path d="M90.7028 551.11C95.3102 551.11 99.0453 547.375 99.0453 542.767C99.0453 538.16 95.3102 534.425 90.7028 534.425C86.0954 534.425 82.3604 538.16 82.3604 542.767C82.3604 547.375 86.0954 551.11 90.7028 551.11Z" fill="#4C6EF8"/>
<path d="M694.962 624.719H313.962C313.697 624.719 313.442 624.614 313.255 624.426C313.067 624.239 312.962 623.984 312.962 623.719C312.962 623.454 313.067 623.2 313.255 623.012C313.442 622.825 313.697 622.719 313.962 622.719H694.962C695.227 622.719 695.481 622.825 695.669 623.012C695.857 623.2 695.962 623.454 695.962 623.719C695.962 623.984 695.857 624.239 695.669 624.426C695.481 624.614 695.227 624.719 694.962 624.719Z" fill="#CCCCCC"/>
<path d="M459.098 394.521L476.389 461.767C476.389 461.767 477.03 509.159 480.872 527.731C484.715 546.304 497.524 591.134 497.524 591.134L512.894 593.696L509.692 530.934C509.692 530.934 509.692 493.148 506.49 484.822C503.288 476.497 496.883 391.319 496.883 391.319L459.098 394.521Z" fill="#A0616A"/>
<path opacity="0.1" d="M459.098 394.521L476.389 461.767C476.389 461.767 477.03 509.159 480.872 527.731C484.715 546.304 497.524 591.134 497.524 591.134L512.894 593.696L509.692 530.934C509.692 530.934 509.692 493.148 506.49 484.822C503.288 476.497 496.883 391.319 496.883 391.319L459.098 394.521Z" fill="black"/>
<path d="M507.039 112.668H507.039C485.691 112.668 468.386 131.874 468.386 155.565V185.665H477.643L483.003 174.513L481.663 185.665H541.165L546.037 175.526L544.819 185.665H551.519V162.031C551.519 134.769 531.604 112.668 507.039 112.668Z" fill="#2F2E41"/>
<path d="M442.767 383.954C442.767 383.954 435.081 416.616 445.328 419.818C455.575 423.02 453.014 383.954 453.014 383.954H442.767Z" fill="#A0616A"/>
<path d="M455.576 218.081L450.452 223.845L451.733 334.64L440.205 387.156L465.823 389.718L478.631 284.046L474.789 230.25L455.576 218.081Z" fill="#CCCCCC"/>
<path opacity="0.1" d="M455.576 218.081L450.452 223.845L451.733 334.64L440.205 387.156L465.823 389.718L478.631 284.046L474.789 230.25L455.576 218.081Z" fill="black"/>
<path d="M503.619 181.459C518.816 181.459 531.136 169.139 531.136 153.942C531.136 138.744 518.816 126.425 503.619 126.425C488.421 126.425 476.102 138.744 476.102 153.942C476.102 169.139 488.421 181.459 503.619 181.459Z" fill="#A0616A"/>
<path d="M487.842 170.452C487.842 170.452 495.914 212.278 492.245 216.681C488.576 221.084 531.136 208.609 531.136 208.609C531.136 208.609 517.194 179.991 524.532 163.848L487.842 170.452Z" fill="#A0616A"/>
<path d="M557.405 353.854C557.405 353.854 565.09 386.516 554.843 389.718C544.596 392.92 547.158 353.854 547.158 353.854H557.405Z" fill="#A0616A"/>
<path d="M498.164 386.836C498.164 386.836 487.277 452.16 487.917 461.767C488.558 471.373 487.917 472.654 487.917 472.654C487.917 472.654 477.03 500.833 473.828 516.844C470.626 532.855 463.581 553.349 463.581 553.349C463.581 553.349 455.255 571.922 462.3 571.922C469.345 571.922 478.951 569.36 478.951 569.36C478.926 561.962 481.41 554.775 485.996 548.971C493.681 539.259 516.737 493.789 516.737 488.025C516.737 482.261 520.58 465.609 520.58 465.609L535.31 394.521L498.164 386.836Z" fill="#A0616A"/>
<path d="M453.334 343.286C453.334 343.286 442.446 398.364 452.053 399.644C461.659 400.925 475.108 391.319 492.4 402.206C509.692 413.094 538.511 410.532 538.511 410.532C538.511 410.532 558.365 359.937 540.433 347.769C522.501 335.601 453.334 343.286 453.334 343.286Z" fill="#2F2E41"/>
<path d="M465.502 564.236C468.321 563.009 471.419 562.567 474.468 562.955C477.387 563.388 480.36 562.702 482.794 561.034C482.794 561.034 477.671 579.607 478.311 586.651C478.952 593.696 476.39 623.797 462.941 620.594C449.492 617.392 445.649 607.786 450.772 591.135C455.896 574.483 454.615 555.27 454.615 555.27C454.615 555.27 463.962 545.616 465.693 546.921C467.424 548.225 465.502 564.236 465.502 564.236Z" fill="#2F2E41"/>
<path d="M508.411 587.932C508.411 587.932 502.007 573.843 494.322 586.651C486.636 599.46 485.996 602.662 485.996 602.662C485.996 602.662 464.221 622.516 479.592 624.437C494.962 626.358 507.13 623.797 507.13 620.594C507.13 617.392 514.815 618.033 515.456 615.471C516.096 612.909 514.175 589.213 514.175 589.213L508.411 587.932Z" fill="#2F2E41"/>
<path d="M522.821 191.824C522.821 191.824 495.923 196.947 492.721 196.307C492 196.179 491.27 196.102 490.538 196.075C484.276 195.79 478.065 197.33 472.662 200.508C463.743 205.689 450.452 214.908 450.452 223.845C450.452 237.294 467.744 260.35 467.744 260.35C467.744 260.35 451.733 315.427 453.014 320.551C454.295 325.674 443.408 342.966 450.452 348.73C457.497 354.494 524.743 348.73 536.911 354.494C549.079 360.258 543.315 277.642 543.315 277.642C543.315 277.642 575.977 202.711 559.326 195.666C553.938 193.387 549.288 191.643 545.462 190.328C541.778 189.06 537.878 188.539 533.991 188.796C530.104 189.053 526.306 190.082 522.821 191.824Z" fill="#CCCCCC"/>
<path d="M547.798 196.307L562.493 198.735C562.493 198.735 568.933 205.273 568.933 208.475C568.933 211.677 567.652 350.011 565.73 354.494C563.809 358.977 542.675 357.056 542.675 357.056L546.517 278.282L547.798 196.307Z" fill="#CCCCCC"/>
<path d="M518.027 124.485C516.167 121.987 513.757 119.952 510.983 118.536C508.209 117.121 505.146 116.363 502.032 116.323H501.273C486.641 116.323 474.78 129.563 474.78 145.895V145.895H479.683L480.475 139.868L481.636 145.895H510.713L513.149 140.796L512.54 145.895H518.261C520.93 159.152 517.095 172.408 506.754 185.665H516.499L521.371 175.467L520.153 185.665H538.729L542.383 162.211C542.383 144.646 532.177 129.751 518.027 124.485Z" fill="#2F2E41"/>
<path d="M523.368 126.955C531.364 126.955 537.845 120.473 537.845 112.477C537.845 104.482 531.364 98 523.368 98C515.372 98 508.891 104.482 508.891 112.477C508.891 120.473 515.372 126.955 523.368 126.955Z" fill="#2F2E41"/>
</g>
<defs>
<clipPath id="clip0">
<rect width="695.962" height="624.846" fill="white"/>
</clipPath>
</defs>
</svg>
