<svg width="492" height="373" viewBox="0 0 492 373" fill="none" xmlns="http://www.w3.org/2000/svg">
<g clip-path="url(#clip0)">
<path d="M263.235 252.765C263.235 252.765 273.68 323.265 335.29 346.765H85.71C147.32 323.265 157.765 252.765 157.765 252.765H263.235Z" fill="#E0E0E0"/>
<path d="M336.39 346.75H84.4551V361.64H336.39V346.75Z" fill="url(#paint0_linear)"/>
<path d="M335.29 346.75H85.71V358.235H335.29V346.75Z" fill="#F5F5F5"/>
<path d="M416.49 0H5.49019C4.0173 0.015835 2.61089 0.615477 1.57971 1.66728C0.548531 2.71909 -0.0231455 4.13709 -0.00981433 5.61V266.545C-0.0223473 267.905 0.23323 269.255 0.742322 270.517C1.25141 271.779 2.00405 272.928 2.95726 273.899C3.91046 274.869 5.04556 275.643 6.29775 276.175C7.54993 276.707 8.89467 276.988 10.2552 277H411.73C413.091 276.988 414.435 276.707 415.688 276.175C416.94 275.643 418.075 274.869 419.028 273.899C419.981 272.928 420.734 271.779 421.243 270.517C421.752 269.255 422.008 267.905 421.995 266.545V5.61C422.009 4.13624 421.436 2.71748 420.404 1.66553C419.372 0.613583 417.964 0.0145189 416.49 0V0Z" fill="url(#paint1_linear)"/>
<path d="M416.48 233.97H4.51514V11.4251C4.51645 10.7188 4.65694 10.0197 4.92859 9.36776C5.20023 8.71581 5.5977 8.12379 6.09827 7.62554C6.59885 7.12728 7.19271 6.73257 7.84592 6.46396C8.49912 6.19535 9.19886 6.05811 9.90514 6.06008H411.1C412.525 6.05875 413.892 6.62309 414.901 7.62908C415.909 8.63507 416.478 10.0004 416.48 11.4251V233.97Z" fill="#F5F5F5"/>
<path d="M406.455 271.565H14.54C11.8879 271.565 9.34434 270.511 7.46897 268.636C5.59361 266.761 4.54004 264.217 4.54004 261.565V233.97H416.48V261.54C416.483 262.857 416.226 264.163 415.724 265.38C415.221 266.598 414.483 267.705 413.551 268.636C412.62 269.568 411.513 270.306 410.295 270.809C409.078 271.311 407.772 271.568 406.455 271.565V271.565Z" fill="white"/>
<path d="M398.18 34.3601H25.3799V208.505H398.18V34.3601Z" fill="#E83E8C"/>
<path d="M398.18 24.52H24.8799V39.86H398.18V24.52Z" fill="#E0E0E0"/>
<path d="M33 36.8601C35.4853 36.8601 37.5 34.8454 37.5 32.3601C37.5 29.8748 35.4853 27.8601 33 27.8601C30.5147 27.8601 28.5 29.8748 28.5 32.3601C28.5 34.8454 30.5147 36.8601 33 36.8601Z" fill="#FF5252"/>
<path d="M43.5 36.8601C45.9853 36.8601 48 34.8454 48 32.3601C48 29.8748 45.9853 27.8601 43.5 27.8601C41.0147 27.8601 39 29.8748 39 32.3601C39 34.8454 41.0147 36.8601 43.5 36.8601Z" fill="#FFFF00"/>
<path d="M54 36.8601C56.4853 36.8601 58.5 34.8454 58.5 32.3601C58.5 29.8748 56.4853 27.8601 54 27.8601C51.5147 27.8601 49.5 29.8748 49.5 32.3601C49.5 34.8454 51.5147 36.8601 54 36.8601Z" fill="#69F0AE"/>
<path d="M207 53.915L139.5 176.025H274.5L207 53.915Z" fill="url(#paint2_linear)"/>
<path d="M207 63.3201L147.645 171.32H266.355L207 63.3201Z" fill="white"/>
<path d="M207 167.32C211.004 167.32 214.25 164.074 214.25 160.07C214.25 156.066 211.004 152.82 207 152.82C202.996 152.82 199.75 156.066 199.75 160.07C199.75 164.074 202.996 167.32 207 167.32Z" fill="url(#paint3_linear)"/>
<path d="M207 166.07C210.314 166.07 213 163.384 213 160.07C213 156.756 210.314 154.07 207 154.07C203.686 154.07 201 156.756 201 160.07C201 163.384 203.686 166.07 207 166.07Z" fill="#E83E8C"/>
<path d="M209 105.32H205V148.32H209V105.32Z" fill="url(#paint4_linear)"/>
<path d="M208.25 105.57H205.75V147.57H208.25V105.57Z" fill="#E83E8C"/>
<path d="M414.745 159.745C415.56 159.745 416.22 159.085 416.22 158.27C416.22 157.455 415.56 156.795 414.745 156.795C413.93 156.795 413.27 157.455 413.27 158.27C413.27 159.085 413.93 159.745 414.745 159.745Z" fill="#DBDBDB"/>
<path d="M481.109 87.0089L245.249 87.2142C239.589 87.2191 235.006 90.0732 235.014 93.5889L235.626 366.635C235.634 370.151 240.229 372.997 245.889 372.992L481.749 372.787C487.409 372.782 491.991 369.928 491.983 366.412L491.372 93.3657C491.364 89.85 486.769 87.0039 481.109 87.0089Z" fill="url(#paint5_linear)"/>
<path d="M475.212 89.9687L251.159 90.163C245.499 90.1679 240.917 93.0219 240.924 96.5376L241.507 355.719C241.515 359.235 246.11 362.081 251.77 362.076L475.823 361.882C481.484 361.877 486.066 359.023 486.058 355.507L485.475 96.3255C485.467 92.8098 480.872 89.9638 475.212 89.9687Z" fill="white"/>
<path d="M457.894 109.208L268.564 109.373L269.062 330.652L458.391 330.488L457.894 109.208Z" fill="#E83E8C"/>
<path d="M362.989 357.894C369.031 357.889 373.918 352.986 373.905 346.943C373.891 340.9 368.982 336.005 362.94 336.011C356.898 336.016 352.011 340.919 352.025 346.962C352.038 353.005 356.947 357.9 362.989 357.894Z" fill="#DBDBDB"/>
<path d="M334 101.001C335.105 101.001 336 100.106 336 99.001C336 97.8964 335.105 97.001 334 97.001C332.895 97.001 332 97.8964 332 99.001C332 100.106 332.895 101.001 334 101.001Z" fill="#DBDBDB"/>
<path d="M394.315 97.784L350.593 97.8219C349.743 97.8226 349.056 98.2507 349.057 98.7781L349.059 99.682C349.061 100.209 349.75 100.636 350.599 100.636L394.321 100.598C395.17 100.597 395.857 100.169 395.856 99.6414L395.854 98.7375C395.853 98.2102 395.164 97.7833 394.315 97.784Z" fill="#DBDBDB"/>
<path d="M362.5 158.001L295 273.001H430L362.5 158.001Z" fill="url(#paint6_linear)"/>
<path d="M361 165.001L302 268.001H420L361 165.001Z" fill="white"/>
<path d="M362.5 265.001C366.642 265.001 370 262.091 370 258.501C370 254.911 366.642 252.001 362.5 252.001C358.358 252.001 355 254.911 355 258.501C355 262.091 358.358 265.001 362.5 265.001Z" fill="url(#paint7_linear)"/>
<path d="M361.5 264.001C364.538 264.001 367 261.315 367 258.001C367 254.687 364.538 252.001 361.5 252.001C358.462 252.001 356 254.687 356 258.001C356 261.315 358.462 264.001 361.5 264.001Z" fill="#E83E8C"/>
<path d="M364 205.001H360V247.001H364V205.001Z" fill="url(#paint8_linear)"/>
<path d="M362 205.001H360V245.001H362V205.001Z" fill="#E83E8C"/>
<path d="M487.065 148.007L372 148.168C369.239 148.171 367.003 150.413 367.007 153.175L367.306 367.639C367.31 370.401 369.552 372.636 372.313 372.632L487.378 372.472C490.14 372.468 492.375 370.226 492.371 367.465L492.072 153C492.068 150.239 489.826 148.003 487.065 148.007Z" fill="url(#paint9_linear)"/>
<path d="M484.188 150.331L374.883 150.483C372.122 150.487 369.886 152.729 369.89 155.49L370.175 359.065C370.178 361.827 372.42 364.062 375.182 364.058L484.486 363.906C487.248 363.902 489.483 361.66 489.479 358.899L489.195 155.324C489.191 152.562 486.95 150.327 484.188 150.331Z" fill="white"/>
<path d="M475.739 165.443L383.375 165.572L383.617 339.377L475.982 339.248L475.739 165.443Z" fill="#E83E8C"/>
<path d="M429.829 359.197C433.897 359.191 437.19 355.889 437.184 351.821C437.178 347.754 433.876 344.461 429.809 344.467C425.741 344.472 422.448 347.774 422.454 351.842C422.46 355.91 425.762 359.202 429.829 359.197Z" fill="#DBDBDB"/>
<path d="M415.745 159.745C416.56 159.745 417.22 159.085 417.22 158.27C417.22 157.455 416.56 156.795 415.745 156.795C414.93 156.795 414.27 157.455 414.27 158.27C414.27 159.085 414.93 159.745 415.745 159.745Z" fill="#DBDBDB"/>
<path d="M444.722 156.47L423.392 156.499C422.978 156.5 422.643 156.836 422.643 157.25L422.644 157.96C422.645 158.375 422.981 158.71 423.395 158.709L444.725 158.68C445.139 158.679 445.475 158.343 445.474 157.929L445.473 157.219C445.473 156.804 445.136 156.469 444.722 156.47Z" fill="#DBDBDB"/>
<path d="M430.135 200.425L397.395 259.655H462.875L430.135 200.425Z" fill="url(#paint10_linear)"/>
<path d="M429.33 204.807L400.54 257.192H458.12L429.33 204.807Z" fill="white"/>
<path d="M430.135 255.43C432.076 255.43 433.65 253.856 433.65 251.915C433.65 249.974 432.076 248.4 430.135 248.4C428.194 248.4 426.62 249.974 426.62 251.915C426.62 253.856 428.194 255.43 430.135 255.43Z" fill="url(#paint11_linear)"/>
<path d="M429.675 254.632C431.282 254.632 432.585 253.329 432.585 251.722C432.585 250.115 431.282 248.812 429.675 248.812C428.068 248.812 426.765 250.115 426.765 251.722C426.765 253.329 428.068 254.632 429.675 254.632Z" fill="#E83E8C"/>
<path d="M431.105 225.36H429.165V246.215H431.105V225.36Z" fill="url(#paint12_linear)"/>
<path d="M429.939 225.302H428.724V245.672H429.939V225.302Z" fill="#E83E8C"/>
</g>
<defs>
<linearGradient id="paint0_linear" x1="210.425" y1="361.64" x2="210.425" y2="346.75" gradientUnits="userSpaceOnUse">
<stop stop-color="#808080" stop-opacity="0.25"/>
<stop offset="0.54" stop-color="#808080" stop-opacity="0.12"/>
<stop offset="1" stop-color="#808080" stop-opacity="0.1"/>
</linearGradient>
<linearGradient id="paint1_linear" x1="223743" y1="174829" x2="223743" y2="21370.6" gradientUnits="userSpaceOnUse">
<stop stop-color="#808080" stop-opacity="0.25"/>
<stop offset="0.54" stop-color="#808080" stop-opacity="0.12"/>
<stop offset="1" stop-color="#808080" stop-opacity="0.1"/>
</linearGradient>
<linearGradient id="paint2_linear" x1="207" y1="176.025" x2="207" y2="53.915" gradientUnits="userSpaceOnUse">
<stop stop-opacity="0.12"/>
<stop offset="0.55" stop-opacity="0.09"/>
<stop offset="1" stop-opacity="0.02"/>
</linearGradient>
<linearGradient id="paint3_linear" x1="6202.75" y1="5005.1" x2="6202.75" y2="4584.6" gradientUnits="userSpaceOnUse">
<stop stop-color="#808080" stop-opacity="0.25"/>
<stop offset="0.54" stop-color="#808080" stop-opacity="0.12"/>
<stop offset="1" stop-color="#808080" stop-opacity="0.1"/>
</linearGradient>
<linearGradient id="paint4_linear" x1="1861" y1="12860.8" x2="1861" y2="9162.84" gradientUnits="userSpaceOnUse">
<stop stop-color="#808080" stop-opacity="0.25"/>
<stop offset="0.54" stop-color="#808080" stop-opacity="0.12"/>
<stop offset="1" stop-color="#808080" stop-opacity="0.1"/>
</linearGradient>
<linearGradient id="paint5_linear" x1="363.828" y1="374.857" x2="363.579" y2="88.0263" gradientUnits="userSpaceOnUse">
<stop offset="0.01" stop-color="#808080" stop-opacity="0.25"/>
<stop offset="0.54" stop-color="#808080" stop-opacity="0.12"/>
<stop offset="1" stop-color="#808080" stop-opacity="0.1"/>
</linearGradient>
<linearGradient id="paint6_linear" x1="116161" y1="59878.6" x2="116161" y2="46255.7" gradientUnits="userSpaceOnUse">
<stop stop-opacity="0.12"/>
<stop offset="0.55" stop-opacity="0.09"/>
<stop offset="1" stop-opacity="0.02"/>
</linearGradient>
<linearGradient id="paint7_linear" x1="13229" y1="6893.18" x2="13229" y2="6710.4" gradientUnits="userSpaceOnUse">
<stop stop-color="#808080" stop-opacity="0.25"/>
<stop offset="0.54" stop-color="#808080" stop-opacity="0.12"/>
<stop offset="1" stop-color="#808080" stop-opacity="0.1"/>
</linearGradient>
<linearGradient id="paint8_linear" x1="3793.08" y1="20887.1" x2="3793.08" y2="19135.2" gradientUnits="userSpaceOnUse">
<stop stop-color="#808080" stop-opacity="0.25"/>
<stop offset="0.54" stop-color="#808080" stop-opacity="0.12"/>
<stop offset="1" stop-color="#808080" stop-opacity="0.1"/>
</linearGradient>
<linearGradient id="paint9_linear" x1="429.851" y1="374.098" x2="429.536" y2="148.806" gradientUnits="userSpaceOnUse">
<stop offset="0.01" stop-color="#808080" stop-opacity="0.25"/>
<stop offset="0.54" stop-color="#808080" stop-opacity="0.12"/>
<stop offset="1" stop-color="#808080" stop-opacity="0.1"/>
</linearGradient>
<linearGradient id="paint10_linear" x1="56596.9" y1="30959.1" x2="56596.9" y2="23942.8" gradientUnits="userSpaceOnUse">
<stop stop-opacity="0.12"/>
<stop offset="0.55" stop-opacity="0.09"/>
<stop offset="1" stop-opacity="0.02"/>
</linearGradient>
<linearGradient id="paint11_linear" x1="6460.26" y1="3839.75" x2="6460.26" y2="3740.91" gradientUnits="userSpaceOnUse">
<stop stop-color="#808080" stop-opacity="0.25"/>
<stop offset="0.54" stop-color="#808080" stop-opacity="0.12"/>
<stop offset="1" stop-color="#808080" stop-opacity="0.1"/>
</linearGradient>
<linearGradient id="paint12_linear" x1="2094.21" y1="10495" x2="2094.21" y2="9625.12" gradientUnits="userSpaceOnUse">
<stop stop-color="#808080" stop-opacity="0.25"/>
<stop offset="0.54" stop-color="#808080" stop-opacity="0.12"/>
<stop offset="1" stop-color="#808080" stop-opacity="0.1"/>
</linearGradient>
<clipPath id="clip0">
<rect width="491.815" height="372.85" fill="white"/>
</clipPath>
</defs>
</svg>
