<svg width="747" height="577" viewBox="0 0 747 577" fill="none" xmlns="http://www.w3.org/2000/svg">
<g clip-path="url(#clip0)">
<path d="M673.788 276.297L662.673 326.291L653.65 366.849L646.458 399.196L637.441 439.754L607.974 572.257L242.841 403.536L216.001 391.132L182.028 375.431L155.179 363.027L122.886 348.103L141.193 321.468L156.417 299.32L175.676 271.299L190.896 249.165L362.16 0L543.587 160.86L575.894 189.504L601.656 212.345L633.969 240.989L673.788 276.297Z" fill="#F2F2F2"/>
<path d="M143.048 423.382C118.632 409.771 103.432 391.188 97.8706 368.15C93.741 351.045 94.9277 331.797 101.397 310.941C106.193 295.564 113.384 281.039 122.705 267.902C172.152 197.911 176.614 152.305 171.651 126.371C166.209 97.9351 148.529 86.1253 148.351 86.0094L149.114 84.8357C149.297 84.9543 167.443 97.0385 173.016 126.052C176.228 142.778 174.717 161.85 168.523 182.738C160.815 208.735 145.784 237.66 123.848 268.71C114.613 281.727 107.487 296.119 102.734 311.355C92.1236 345.562 90.6224 392.553 143.73 422.16L143.048 423.382Z" fill="#2F2E41"/>
<path d="M154.789 423.382C179.205 409.771 194.405 391.188 199.967 368.15C204.097 351.045 202.91 331.797 196.44 310.941C191.644 295.564 184.454 281.039 175.133 267.902C125.686 197.911 121.223 152.305 126.186 126.371C131.628 97.9351 149.308 86.1253 149.486 86.0094L148.723 84.8357C148.541 84.9543 130.395 97.0385 124.822 126.052C121.609 142.778 123.121 161.85 129.314 182.738C137.022 208.735 152.053 237.66 173.989 268.71C183.225 281.727 190.35 296.119 195.103 311.355C205.714 345.562 207.215 392.553 154.108 422.16L154.789 423.382Z" fill="#2F2E41"/>
<path d="M686.95 364.582C662.534 350.971 647.335 332.388 641.773 309.35C637.643 292.246 638.83 272.998 645.299 252.141C650.095 236.764 657.286 222.239 666.607 209.102C716.054 139.112 720.517 93.5056 715.553 67.5714C710.112 39.1353 692.431 27.3255 692.253 27.2096L693.017 26.0359C693.199 26.1545 711.345 38.2387 716.918 67.2518C720.13 83.978 718.619 103.05 712.426 123.939C704.717 149.935 689.686 178.86 667.75 209.91C658.515 222.927 651.389 237.319 646.637 252.555C636.026 286.762 634.525 333.753 687.632 363.36L686.95 364.582Z" fill="#2F2E41"/>
<path d="M698.692 364.582C723.108 350.971 738.307 332.388 743.869 309.35C747.999 292.246 746.812 272.998 740.343 252.141C735.547 236.764 728.356 222.239 719.035 209.102C669.588 139.112 665.125 93.5056 670.089 67.5714C675.53 39.1353 693.211 27.3255 693.389 27.2096L692.625 26.0359C692.443 26.1545 674.297 38.2387 668.724 67.2518C665.512 83.978 667.023 103.05 673.216 123.939C680.925 149.935 695.956 178.86 717.892 209.91C727.127 222.927 734.253 237.319 739.005 252.555C749.616 286.762 751.117 333.753 698.01 363.36L698.692 364.582Z" fill="#2F2E41"/>
<path d="M327.472 209.961C309.127 178.964 272.833 177.52 272.833 177.52C272.833 177.52 237.467 172.997 214.779 220.206C193.633 264.209 164.448 306.694 210.081 316.995L218.323 291.34L223.428 318.905C229.925 319.372 236.443 319.483 242.952 319.238C291.821 317.661 338.361 319.7 336.863 302.164C334.871 278.852 345.123 239.787 327.472 209.961Z" fill="#2F2E41"/>
<path d="M252.174 274.836C258.495 288.818 262.481 305.486 264.861 323.999L315.611 320.827C303.943 304.294 300.069 285.317 304.509 263.734L252.174 274.836Z" fill="#FFB8B8"/>
<path opacity="0.2" d="M252.174 274.836C258.495 288.818 262.481 305.486 264.861 323.999L315.611 320.827C303.943 304.294 300.069 285.317 304.509 263.734L252.174 274.836Z" fill="black"/>
<path d="M16.7106 541.061C16.7106 541.061 -9.55549 555.13 3.77316 567.142C17.1018 579.154 34.7083 551.242 34.7083 551.242L16.7106 541.061Z" fill="#FFB8B8"/>
<path d="M337.815 500.034L337.405 519.255L336.529 560.786V560.793L336.274 572.82H168.307L175.134 534.914L175.141 534.886L181.253 500.959L183.981 485.766V485.759L321.957 466.729L337.815 500.034Z" fill="#2F2E41"/>
<path d="M337.814 500.036L337.402 519.257C288.587 518.004 212.922 506.221 181.251 500.956L183.979 485.763L321.955 466.732L337.814 500.036Z" fill="#3F3D56"/>
<path d="M276.756 288.316C298.653 288.316 316.404 270.565 316.404 248.668C316.404 226.771 298.653 209.02 276.756 209.02C254.859 209.02 237.108 226.771 237.108 248.668C237.108 270.565 254.859 288.316 276.756 288.316Z" fill="#FFB8B8"/>
<path d="M352.88 521.446C352.88 521.446 357.638 564.266 329.091 561.094L324.333 518.274L298.959 492.899L227.592 491.314L175.257 540.477C175.257 540.477 173.671 489.728 180.014 484.97C186.358 480.212 200.631 469.111 200.631 469.111V461.181L157.811 373.956C157.811 373.956 183.186 321.62 203.803 320.034L230.764 318.448C230.764 318.448 240.279 313.691 240.279 312.105C240.279 310.519 238.694 297.831 246.623 301.003C246.623 301.003 247.337 284.732 255.695 289.696C255.695 289.696 282.005 310.313 308.712 290.6C308.712 290.6 321.162 288.316 319.576 294.66C317.99 301.003 319.576 305.761 322.748 305.761C325.919 305.761 340.193 310.519 340.193 313.691C340.193 314.373 341.224 320.938 342.841 330.819V330.834C348.725 366.851 362.396 446.908 362.396 446.908C362.396 446.908 376.669 467.525 352.88 521.446Z" fill="#4C6EF8"/>
<path d="M168.913 366.026L157.811 373.955L56.3123 504.001L2.39087 546.821C2.39087 546.821 32.5234 542.063 26.1798 567.438L211.733 461.181L168.913 366.026Z" fill="#4C6EF8"/>
<path d="M342.841 330.818V330.834C340.732 343.236 271.998 340.651 262.483 340.651C252.967 340.651 245.037 339.065 235.522 332.722C226.006 326.378 230.764 318.448 230.764 318.448C230.764 318.448 238.866 312.277 238.866 310.691C238.866 309.105 237.28 296.418 245.21 299.59C245.21 299.59 245.924 283.318 254.281 288.282C254.281 288.282 282.005 310.313 308.712 290.6C308.712 290.6 321.162 288.316 319.576 294.66C317.99 301.003 319.576 305.761 322.748 305.761C325.92 305.761 340.193 310.519 340.193 313.691C340.193 314.373 341.224 320.938 342.841 330.818Z" fill="#3F3D56"/>
<path d="M334.642 271.664C334.642 271.664 321.955 244.703 309.267 257.391C296.58 270.078 323.541 289.109 323.541 289.109L334.642 271.664Z" fill="#FFB8B8"/>
<path d="M334.642 265.32C334.642 265.32 315.051 290.079 308.987 291.973C308.987 291.973 326.712 362.061 348.915 381.092L361.603 446.115C361.603 446.115 415.524 423.912 402.837 387.436C402.71 387.071 402.584 386.709 402.458 386.348C391.864 355.971 377.244 327.152 358.989 300.662L334.642 265.32Z" fill="#4C6EF8"/>
<path opacity="0.2" d="M324.173 338.753L363.189 446.115L348.916 381.092L324.173 338.753Z" fill="black"/>
<path d="M319.362 206.973L283.505 188.192L233.989 195.875L223.743 241.122L249.246 240.141L256.37 223.518V239.868L268.137 239.415L274.967 212.949L279.236 241.122L321.069 240.269L319.362 206.973Z" fill="#2F2E41"/>
<path d="M658.093 451.037L678.436 523.606C678.436 523.606 674.244 587.885 693.808 575.309C713.828 562.439 706.384 508.235 706.384 508.235L694.658 443.131L658.093 451.037Z" fill="#A0616A"/>
<path d="M668.964 247.46L685.764 264.26V344.307C685.764 344.307 695.646 359.131 693.669 363.084C691.693 367.037 689.717 367.037 691.693 370.001C693.669 372.966 695.646 374.943 693.669 376.919C691.693 378.895 691.693 383.837 693.669 385.813C695.646 387.79 699.599 390.754 696.634 393.719C693.669 396.684 689.716 394.707 693.669 405.578C697.622 416.448 704.54 419.413 702.564 423.366C700.587 427.319 700.587 437.201 700.587 437.201L658.093 443.131L649.199 331.46L668.964 247.46Z" fill="#D0CDE1"/>
<path d="M702.563 436.213L653.152 438.19L655.128 458.943L698.61 451.037L702.563 436.213Z" fill="#3F3D56"/>
<path d="M566.681 144.19L560.751 203.484L621.034 212.378L625.481 178.284L629.928 144.19H566.681Z" fill="#A0616A"/>
<path opacity="0.1" d="M566.681 143.869L560.751 203.163L621.034 212.057L625.481 177.963L629.928 143.869H566.681Z" fill="black"/>
<path d="M435.74 426.331L469.34 498.472C469.34 498.472 475.269 532.072 484.163 533.06C493.057 534.048 501.951 498.472 501.951 498.472L490.093 479.695L476.257 426.331H435.74Z" fill="#A0616A"/>
<path d="M665.742 573.52H475.783C477.288 549.712 478.235 535.035 478.235 535.035L480.758 531.064L492.991 511.842L501.725 498.119L504.771 493.328L505.901 491.554L517.865 489.37L641.291 466.849C643.333 475.99 646.221 484.921 649.92 493.526C650.76 495.441 651.665 497.356 652.633 499.25C655.735 505.306 659.523 511.044 664.025 515.27C665.049 516.231 665.791 518.796 666.272 522.739C667.459 532.399 667.12 550.362 665.742 573.52Z" fill="#2F2E41"/>
<path d="M599.787 163.461C625.985 163.461 647.222 142.223 647.222 116.026C647.222 89.8278 625.985 68.5903 599.787 68.5903C573.589 68.5903 552.352 89.8278 552.352 116.026C552.352 142.223 573.589 163.461 599.787 163.461Z" fill="#A0616A"/>
<path d="M494.045 212.872L487.128 208.919C487.128 208.919 456.492 229.672 446.61 276.119C436.728 322.566 429.81 334.425 429.81 334.425C429.81 334.425 419.928 336.401 426.845 343.319C433.763 350.237 433.763 349.249 427.834 353.201C421.904 357.154 417.951 349.249 421.904 357.154C425.857 365.06 430.798 363.084 426.845 368.025C422.892 372.966 415.975 372.966 419.928 376.919C423.881 380.872 415.975 389.766 420.916 393.719C425.857 397.672 427.834 398.66 427.834 405.578C427.803 409.615 428.472 413.627 429.81 417.437H481.198C481.198 417.437 471.316 398.66 474.281 394.707C477.245 390.754 478.234 386.801 476.257 384.825C474.281 382.848 468.351 386.801 474.281 381.86C480.21 376.919 482.187 379.884 480.21 373.954C478.234 368.025 474.281 370.99 478.234 368.025C482.187 365.06 485.151 366.048 483.175 363.084C481.198 360.119 477.245 360.119 481.198 358.143C485.151 356.166 488.116 358.143 487.128 353.201C486.14 348.26 485.151 350.237 487.128 348.26C489.104 346.284 509.857 279.084 509.857 277.107C509.857 275.131 494.045 212.872 494.045 212.872Z" fill="#D0CDE1"/>
<path d="M484.163 413.484L421.904 417.437L437.716 432.26L481.199 433.248L484.163 413.484Z" fill="#3F3D56"/>
<path d="M501.951 487.601L489.104 511.319C489.104 511.319 527.645 516.26 541.481 521.201C555.316 526.142 590.893 533.06 590.893 533.06L599.787 498.472L501.951 487.601Z" fill="#3F3D56"/>
<path d="M614.61 498.472L625.481 531.083L668.963 522.189L664.022 491.554L614.61 498.472Z" fill="#3F3D56"/>
<path d="M632.399 179.272C632.399 179.272 629.434 177.296 622.516 181.249C615.599 185.202 592.869 187.178 581.999 175.32C571.128 163.461 563.222 153.578 560.257 155.555C557.293 157.531 555.316 180.261 555.316 180.261L545.434 188.167L487.128 208.919L492.069 342.331L500.963 372.966C500.963 372.966 494.046 396.684 502.94 410.519C511.834 424.354 497.999 429.295 497.999 429.295C497.999 429.295 495.034 433.248 497.01 443.131C498.987 453.013 495.034 489.578 495.034 489.578C495.034 489.578 579.034 527.13 666.987 494.519L657.105 456.966L652.163 372.966C652.163 372.966 657.105 359.131 656.116 353.201C655.128 347.272 685.763 264.261 685.763 264.261C685.763 264.261 680.822 222.755 655.128 213.861C629.434 204.967 625.481 196.072 625.481 196.072C625.481 196.072 637.34 183.225 632.399 179.272Z" fill="#D0CDE1"/>
<path d="M552.022 122.102C552.022 122.102 547.097 114.713 548.991 106.756C550.123 102.238 550.57 97.576 550.317 92.9254C550.317 92.9254 554.296 80.0423 558.275 72.8429C562.253 65.6435 560.359 62.6122 572.863 60.3387C585.367 58.0653 580.252 41.7719 613.217 59.3914C614.33 60.9443 615.877 62.133 617.664 62.8073C619.451 63.4817 621.398 63.6116 623.259 63.1806C630.079 61.8544 632.542 71.3273 632.542 71.3273C632.542 71.3273 637.089 68.6749 638.794 72.464C640.499 76.2532 652.657 70.1899 652.657 95.7666C652.657 121.343 638.822 144.19 638.822 144.19C638.822 144.19 639.836 101.167 617.291 96.8093C594.745 92.4518 570.495 79.7581 564.621 96.0515C558.748 112.345 552.022 122.102 552.022 122.102Z" fill="#2F2E41"/>
<path d="M639.316 132.331C641.772 132.331 643.763 129.677 643.763 126.402C643.763 123.127 641.772 120.472 639.316 120.472C636.86 120.472 634.869 123.127 634.869 126.402C634.869 129.677 636.86 132.331 639.316 132.331Z" fill="#A0616A"/>
</g>
<defs>
<clipPath id="clip0">
<rect width="746.277" height="576.94" fill="white"/>
</clipPath>
</defs>
</svg>
