<svg width="85" height="75" viewBox="0 0 85 75" fill="none" xmlns="http://www.w3.org/2000/svg">
<path d="M8.29266 36.6001C12.4314 36.6001 15.7865 33.2422 15.7865 29.1001C15.7865 24.958 12.4314 21.6001 8.29266 21.6001C4.15393 21.6001 0.798828 24.958 0.798828 29.1001C0.798828 33.2422 4.15393 36.6001 8.29266 36.6001Z" fill="#65F9B3"/>
<path d="M41.4656 75C45.6043 75 48.9594 71.6421 48.9594 67.5C48.9594 63.3579 45.6043 60 41.4656 60C37.3268 60 33.9717 63.3579 33.9717 67.5C33.9717 71.6421 37.3268 75 41.4656 75Z" fill="#65F9B3"/>
<path d="M14.9877 63.5C14.9877 67.642 11.6326 71 7.49383 71C3.35509 71 0 67.642 0 63.5C0 59.358 3.35509 56 7.49383 56C11.6326 56 14.9877 59.358 14.9877 63.5Z" fill="#65F9B3"/>
<path d="M48.9594 35.5C48.9594 39.6421 45.6043 43 41.4656 43C37.3268 43 33.9717 39.6421 33.9717 35.5C33.9717 31.3579 37.3268 28 41.4656 28C45.6043 28 48.9594 31.3579 48.9594 35.5Z" fill="#65F9B3"/>
<path d="M83.3311 7.5C83.3311 11.6421 79.9759 15 75.8373 15C71.6987 15 68.3438 11.6421 68.3438 7.5C68.3438 3.35785 71.6987 0 75.8373 0C79.9759 0 83.3311 3.35785 83.3311 7.5Z" fill="#65F9B3"/>
<path d="M76.6374 49.8C80.7762 49.8 84.1313 46.4422 84.1313 42.3C84.1313 38.1579 80.7762 34.8 76.6374 34.8C72.4987 34.8 69.1436 38.1579 69.1436 42.3C69.1436 46.4422 72.4987 49.8 76.6374 49.8Z" fill="#65F9B3"/>
<path d="M35 42.8081L32.7147 40L14 56.192L16.2853 59L35 42.8081Z" fill="#65F9B3"/>
<path d="M70.3031 49.4441L67.9539 46.208L47.6533 60.9693L50.0025 64.2054L70.3031 49.4441Z" fill="#65F9B3"/>
<path d="M15.0081 35L12 37.5L33.9919 63L36.5 60.5L15.0081 35Z" fill="#65F9B3"/>
<path d="M70.6856 14.6135L68.1165 11.5493L47.46 28.8965L50.029 31.9606L70.6856 14.6135Z" fill="#65F9B3"/>
</svg>
