<svg width="483" height="221" viewBox="0 0 483 221" fill="none" xmlns="http://www.w3.org/2000/svg">
<g clip-path="url(#clip0)">
<path d="M68.5692 215.361H22.7428C20.3448 215.361 18.401 213.418 18.401 211.02C18.401 208.622 20.3452 206.678 22.7428 206.678H68.5692C72.1259 206.678 75.0199 203.784 75.0199 200.227V179.436C75.0199 177.038 76.9641 175.094 79.3617 175.094C81.7597 175.094 83.7035 177.038 83.7035 179.436V200.227C83.7035 208.572 76.9141 215.361 68.5692 215.361Z" fill="#1C3547"/>
<path d="M19.9219 220C24.9576 220 29.0398 215.918 29.0398 210.882C29.0398 205.847 24.9576 201.765 19.9219 201.765C14.8862 201.765 10.804 205.847 10.804 210.882C10.804 215.918 14.8862 220 19.9219 220Z" fill="#18AE93"/>
<path d="M110 220C107.602 220 105.658 218.056 105.658 215.658V179.436C105.658 177.038 107.602 175.094 110 175.094C112.398 175.094 114.342 177.038 114.342 179.436V215.658C114.342 218.056 112.398 220 110 220Z" fill="#1C3547"/>
<path d="M68.5692 4.63904H22.7428C20.3448 4.63904 18.401 6.5828 18.401 8.9808C18.401 11.3788 20.3452 13.3226 22.7428 13.3226H68.5692C72.1259 13.3226 75.0199 16.2162 75.0199 19.7733V40.5646C75.0199 42.9626 76.9641 44.9064 79.3617 44.9064C81.7597 44.9064 83.7035 42.9626 83.7035 40.5646V19.7737C83.7035 11.4284 76.9141 4.63904 68.5692 4.63904V4.63904Z" fill="#1C3547"/>
<path d="M19.9219 18.2358C24.9576 18.2358 29.0398 14.1536 29.0398 9.11792C29.0398 4.08223 24.9576 0 19.9219 0C14.8862 0 10.804 4.08223 10.804 9.11792C10.804 14.1536 14.8862 18.2358 19.9219 18.2358Z" fill="#18AE93"/>
<path d="M110 0C107.602 0 105.658 1.94376 105.658 4.34177V40.5646C105.658 42.9626 107.602 44.9063 110 44.9063C112.398 44.9063 114.342 42.9626 114.342 40.5646V4.34177C114.342 1.94376 112.398 0 110 0V0Z" fill="#1C3547"/>
<path d="M4.99951 68.5694V47.7276C4.99951 45.3296 6.94328 43.3859 9.34128 43.3859C11.7393 43.3859 13.683 45.3301 13.683 47.7276V68.5694C13.683 72.126 16.5767 75.0201 20.1338 75.0201H40.9251C43.3231 75.0201 45.2668 76.9643 45.2668 79.3619C45.2668 81.7594 43.3231 83.7036 40.9251 83.7036H20.1338C11.7889 83.7036 4.99951 76.9143 4.99951 68.5694V68.5694Z" fill="#1C3547"/>
<path d="M9.47803 54.0248C14.5137 54.0248 18.596 49.9425 18.596 44.9069C18.596 39.8712 14.5137 35.7889 9.47803 35.7889C4.44234 35.7889 0.360107 39.8712 0.360107 44.9069C0.360107 49.9425 4.44234 54.0248 9.47803 54.0248Z" fill="#18AE93"/>
<path d="M4.99951 151.431V172.272C4.99951 174.67 6.94328 176.614 9.34128 176.614C11.7393 176.614 13.683 174.67 13.683 172.272V151.431C13.683 147.874 16.5767 144.98 20.1338 144.98H40.9251C43.3231 144.98 45.2668 143.036 45.2668 140.638C45.2668 138.241 43.3231 136.296 40.9251 136.296H20.1338C11.7889 136.296 4.99951 143.086 4.99951 151.431V151.431Z" fill="#1C3547"/>
<path d="M9.47803 184.211C14.5137 184.211 18.596 180.129 18.596 175.093C18.596 170.057 14.5137 165.975 9.47803 165.975C4.44234 165.975 0.360107 170.057 0.360107 175.093C0.360107 180.129 4.44234 184.211 9.47803 184.211Z" fill="#18AE93"/>
<path d="M0.360107 110C0.360107 107.602 2.30387 105.659 4.70187 105.659H40.9247C43.3227 105.659 45.2664 107.602 45.2664 110C45.2664 112.398 43.3227 114.342 40.9247 114.342H4.7023C2.3043 114.342 0.360107 112.398 0.360107 110V110Z" fill="#1C3547"/>
<path d="M215 68.5694V47.7276C215 45.3296 213.057 43.3859 210.659 43.3859C208.261 43.3859 206.317 45.3301 206.317 47.7276V68.5694C206.317 72.126 203.423 75.0201 199.866 75.0201H179.075C176.677 75.0201 174.733 76.9643 174.733 79.3619C174.733 81.7594 176.677 83.7036 179.075 83.7036H199.866C208.211 83.7036 215 76.9143 215 68.5694Z" fill="#1C3547"/>
<path d="M210.522 54.0248C215.558 54.0248 219.64 49.9425 219.64 44.9069C219.64 39.8712 215.558 35.7889 210.522 35.7889C205.486 35.7889 201.404 39.8712 201.404 44.9069C201.404 49.9425 205.486 54.0248 210.522 54.0248Z" fill="#18AE93"/>
<path d="M215 151.431V172.272C215 174.67 213.057 176.614 210.659 176.614C208.261 176.614 206.317 174.67 206.317 172.272V151.431C206.317 147.874 203.423 144.98 199.866 144.98H179.075C176.677 144.98 174.733 143.036 174.733 140.638C174.733 138.241 176.677 136.296 179.075 136.296H199.866C208.211 136.296 215 143.086 215 151.431Z" fill="#1C3547"/>
<path d="M210.522 184.211C215.558 184.211 219.64 180.129 219.64 175.093C219.64 170.057 215.558 165.975 210.522 165.975C205.486 165.975 201.404 170.057 201.404 175.093C201.404 180.129 205.486 184.211 210.522 184.211Z" fill="#18AE93"/>
<path d="M219.639 110C219.639 107.602 217.696 105.658 215.298 105.658H179.075C176.677 105.658 174.733 107.602 174.733 110C174.733 112.398 176.677 114.342 179.075 114.342H215.298C217.695 114.342 219.639 112.398 219.639 110Z" fill="#1C3547"/>
<path d="M153.155 169.628H66.8451C57.7474 169.628 50.3718 162.253 50.3718 153.155V66.845C50.3718 57.7473 57.747 50.3717 66.8451 50.3717H153.155C162.253 50.3717 169.628 57.7469 169.628 66.845V153.155C169.628 162.253 162.253 169.628 153.155 169.628Z" fill="#1C3547"/>
<path d="M75.7796 62.7172H144.22C151.434 62.7172 157.282 68.5653 157.282 75.7796V144.22C157.282 151.434 151.434 157.282 144.22 157.282H75.7796C68.5653 157.282 62.7172 151.434 62.7172 144.22V75.7796C62.7172 68.5653 68.5653 62.7172 75.7796 62.7172V62.7172Z" fill="#1D7F6D"/>
<path d="M94.87 98.5971H90.4286C87.8814 98.5971 85.8164 96.5322 85.8164 93.9849V89.5435C85.8164 86.9963 87.8814 84.9313 90.4286 84.9313H94.87C97.4173 84.9313 99.4823 86.9963 99.4823 89.5435V93.9849C99.4827 96.5322 97.4177 98.5971 94.87 98.5971Z" fill="#1C3547"/>
<path d="M112.295 98.5972H107.853C105.306 98.5972 103.241 96.5322 103.241 93.9849V89.5435C103.241 86.9963 105.306 84.9313 107.853 84.9313H112.295C114.842 84.9313 116.907 86.9963 116.907 89.5435V93.9849C116.907 96.5322 114.842 98.5972 112.295 98.5972Z" fill="#1C3547"/>
<path d="M129.571 98.5972H125.13C122.583 98.5972 120.518 96.5322 120.518 93.9849V89.5435C120.518 86.9963 122.583 84.9313 125.13 84.9313H129.571C132.119 84.9313 134.184 86.9963 134.184 89.5435V93.9849C134.184 96.5322 132.119 98.5972 129.571 98.5972Z" fill="#1C3547"/>
<path d="M94.87 116.833H90.4286C87.8814 116.833 85.8164 114.768 85.8164 112.221V107.779C85.8164 105.232 87.8814 103.167 90.4286 103.167H94.87C97.4173 103.167 99.4823 105.232 99.4823 107.779V112.221C99.4827 114.768 97.4177 116.833 94.87 116.833Z" fill="#1C3547"/>
<path d="M112.295 116.833H107.853C105.306 116.833 103.241 114.768 103.241 112.221V107.779C103.241 105.232 105.306 103.167 107.853 103.167H112.295C114.842 103.167 116.907 105.232 116.907 107.779V112.221C116.907 114.768 114.842 116.833 112.295 116.833Z" fill="#1C3547"/>
<path d="M129.571 116.833H125.13C122.583 116.833 120.518 114.768 120.518 112.221V107.779C120.518 105.232 122.583 103.167 125.13 103.167H129.571C132.119 103.167 134.184 105.232 134.184 107.779V112.221C134.184 114.768 132.119 116.833 129.571 116.833Z" fill="#1C3547"/>
<path d="M94.87 135.069H90.4286C87.8814 135.069 85.8164 133.004 85.8164 130.457V126.015C85.8164 123.468 87.8814 121.403 90.4286 121.403H94.87C97.4173 121.403 99.4823 123.468 99.4823 126.015V130.457C99.4827 133.004 97.4177 135.069 94.87 135.069Z" fill="#1C3547"/>
<path d="M112.295 135.069H107.853C105.306 135.069 103.241 133.004 103.241 130.457V126.015C103.241 123.468 105.306 121.403 107.853 121.403H112.295C114.842 121.403 116.907 123.468 116.907 126.015V130.457C116.907 133.004 114.842 135.069 112.295 135.069Z" fill="#1C3547"/>
<path d="M129.571 135.069H125.13C122.583 135.069 120.518 133.004 120.518 130.457V126.015C120.518 123.468 122.583 121.403 125.13 121.403H129.571C132.119 121.403 134.184 123.468 134.184 126.015V130.457C134.184 133.004 132.119 135.069 129.571 135.069Z" fill="#1C3547"/>
</g>
<path d="M152.134 5.00267L443.302 5C445.7 5 448.302 7.372 448.302 9.77C448.302 12.168 445.7 13.6862 443.302 13.6862H152.134C148.578 13.6862 145.684 16.5798 145.684 20.1369V40.9282C145.684 43.3262 143.739 45.27 141.342 45.27C138.944 45.27 137 43.3262 137 40.9282V20.1374C137 11.792 143.789 5.00267 152.134 5.00267Z" fill="#1C3547"/>
<path d="M152.134 216.267L408.5 216C410.898 216 412.5 214.398 412.5 212C412.5 209.602 410.898 207 408.5 207L152.134 207.584C148.578 207.584 145.684 204.69 145.684 201.133V180.342C145.684 177.944 143.739 176 141.342 176C138.944 176 137 177.944 137 180.342V201.133C137 209.478 143.789 216.267 152.134 216.267Z" fill="#1C3547"/>
<path d="M271.6 43.3999L279 50.7999H290.88H302.8V43.3999V35.9999H283.52H264.2L271.6 43.3999Z" fill="#1C3547"/>
<path d="M254.48 38C246.76 40.76 242 47.56 241.96 55.8C241.96 64.76 247.76 72.12 256.48 74.2C258.44 74.64 261.92 74.8 271.92 74.8H284.88L286.04 75.96C287.72 77.64 287.68 79.92 285.96 81.36L284.72 82.4H263.36H242V90V97.6H262.92C275.04 97.6 284.88 97.44 286.4 97.2C296.4 95.64 303.68 85.76 302.04 75.96C301.8 74.48 301.72 73 301.84 72.64C302.16 71.8 300.28 67.84 298.6 65.76C296.76 63.56 293.44 61.36 290.32 60.4C288 59.68 286.64 59.6 273.88 59.6C258.6 59.6 258.16 59.52 257.2 57.24C256.56 55.68 257 53.8 258.28 52.8C259.2 52.08 259.92 52 265.56 52H271.8L264.4 44.6C260.32 40.52 256.92 37.2 256.8 37.2C256.68 37.24 255.64 37.56 254.48 38Z" fill="#1C3547"/>
<path d="M406.96 53.48C407.68 55.36 427.04 95.96 427.24 96C427.36 96 428.72 93.36 430.28 90.08L433.08 84.2L425.64 68.48L418.24 52.8H412.48C407.16 52.8 406.72 52.84 406.96 53.48Z" fill="#1C3547"/>
<path d="M435.52 54.28C435.16 55.12 433.6 58.52 432 61.84L429.12 67.84L431.8 73.64C433.28 76.8 434.64 79.56 434.76 79.72C434.92 79.88 436.8 76.36 438.92 71.92C441.04 67.44 443.92 61.32 445.36 58.28L447.96 52.8H442.04H436.12L435.52 54.28Z" fill="#1C3547"/>
<path d="M310 60.72V67.8L316.32 74.12L322.6 80.4H334.12H345.6V75.2V70H336.48H327.36L324.6 67.2L321.84 64.4H333.52H345.2V59V53.6H327.6H310V60.72Z" fill="#1C3547"/>
<path d="M354.4 61.72V69.4L367.92 82.92L381.4 96.4H389.56H397.72L389.64 88.52L381.52 80.64L383.92 80.16C386.96 79.52 388.44 78.76 390.8 76.56C393.56 73.96 394.92 70.72 394.96 66.6C395 62.44 393.92 59.96 391 57.28C387.48 54.08 387.08 54 369.56 54H354.4V61.72ZM384.2 65.24C384.36 65.48 384.36 66.44 384.2 67.44C383.84 69.96 383.28 70.16 376.4 70.04L370.6 69.96L368.32 67.68C367.04 66.44 366 65.28 366 65.12C366 64.6 383.92 64.72 384.2 65.24Z" fill="#1C3547"/>
<path d="M456.8 56.5199V58.9999L462.2 64.3999L467.6 69.7999V61.8799V53.9999H462.2H456.8V56.5199Z" fill="#1C3547"/>
<path d="M456.8 80.12V96.4H462.2H467.6V85.48V74.6L462.2 69.2L456.8 63.8V80.12Z" fill="#1C3547"/>
<path d="M310 84.32V96.4H327.8H345.6V91.2V86H333H320.4V84.28C320.4 82.64 320.24 82.44 315.2 77.4L310 72.2V84.32Z" fill="#1C3547"/>
<path d="M354.48 85.8L354.6 97H359.8H365L365.12 91.2L365.2 85.4L359.8 80L354.4 74.6L354.48 85.8Z" fill="#1C3547"/>
<path d="M445.118 18.2358C450.154 18.2358 454.236 14.1536 454.236 9.11792C454.236 4.08223 450.154 0 445.118 0C440.082 0 436 4.08223 436 9.11792C436 14.1536 440.082 18.2358 445.118 18.2358Z" fill="#18AE93"/>
<path d="M411.118 220.236C416.154 220.236 420.236 216.154 420.236 211.118C420.236 206.082 416.154 202 411.118 202C406.082 202 402 206.082 402 211.118C402 216.154 406.082 220.236 411.118 220.236Z" fill="#18AE93"/>
<path d="M242 128.399V135.799H253.4H264.8V139.518V143.198L272.2 150.598L279.6 157.997V146.878V135.799H291H302.4V128.399V121H272.2H242V128.399Z" fill="#18AE93"/>
<path d="M364.76 138.239C360.32 139.278 355.32 142.278 352.68 145.518C351.88 146.518 351.2 147.478 351.2 147.678C351.2 147.878 352.92 149.718 355.04 151.797L358.88 155.597L359.52 154.597C362.32 150.478 365.44 148.598 369.72 148.598C374 148.598 377.4 150.518 379.24 153.997L380.2 155.797H385.72H391.28L391 154.477C390.88 153.797 390.04 151.757 389.2 149.998C386.48 144.398 381.08 139.998 374.96 138.399C372.48 137.759 367.12 137.639 364.76 138.239Z" fill="#18AE93"/>
<path d="M303.2 145.518V152.397L309.72 158.917L316.2 165.396H327.52H338.8V160.197V154.997H329.68H320.56L317.8 152.197L315.04 149.398H326.92H338.8V143.998V138.599H321H303.2V145.518Z" fill="#18AE93"/>
<path d="M400 144.918V151.197L407.12 158.317L414.2 165.396H420.32H426.4V173.396V181.395H431.8H437.2V160.237V139.038L435.52 138.799C434.56 138.679 432.2 138.599 430.2 138.679L426.6 138.799L426.48 146.878L426.4 154.997H422.52H418.68L414.56 150.918L410.4 146.838V142.718V138.599H405.2H400V144.918Z" fill="#18AE93"/>
<path d="M264.8 165.716V181.395H272.2H279.6V173.076V164.796L272.2 157.397L264.8 149.998V165.716Z" fill="#18AE93"/>
<path d="M348.84 152.277C347.96 154.637 347.48 158.397 347.72 161.597C348.56 173.476 358.84 182.435 370.8 181.675C379.84 181.075 387.2 175.595 390.24 167.156C391.72 163.157 392 163.396 385.64 163.396H380.08L379.04 165.156C376.96 168.756 373.4 170.756 369.2 170.716C366.16 170.716 364.24 169.956 361.96 167.916C360.08 166.236 358.92 164.156 358.56 161.877C358.36 160.517 357.64 159.637 353.76 155.757C349.32 151.317 349.24 151.277 348.84 152.277Z" fill="#18AE93"/>
<path d="M400 168.716V181.395H405.2H410.4V173.876V166.396L405.2 161.197L400 155.997V168.716Z" fill="#18AE93"/>
<path d="M303.2 169.316V181.395H321H338.8V176.195V170.996H326.4H314V169.476C314 168.076 313.64 167.596 308.6 162.597L303.2 157.197V169.316Z" fill="#18AE93"/>
<defs>
<clipPath id="clip0">
<rect width="220" height="220" fill="white"/>
</clipPath>
</defs>
</svg>