<svg width="213" height="75" viewBox="0 0 213 75" fill="none" xmlns="http://www.w3.org/2000/svg">
<path d="M8.29315 36.6C12.4319 36.6 15.787 33.2421 15.787 29.1C15.787 24.9579 12.4319 21.6 8.29315 21.6C4.15442 21.6 0.799316 24.9579 0.799316 29.1C0.799316 33.2421 4.15442 36.6 8.29315 36.6Z" fill="#65F9B3"/>
<path d="M41.4658 75C45.6045 75 48.9596 71.6421 48.9596 67.5C48.9596 63.3579 45.6045 60 41.4658 60C37.327 60 33.9719 63.3579 33.9719 67.5C33.9719 71.6421 37.327 75 41.4658 75Z" fill="#65F9B3"/>
<path d="M14.9877 63.5C14.9877 67.642 11.6326 71 7.49383 71C3.35509 71 0 67.642 0 63.5C0 59.358 3.35509 56 7.49383 56C11.6326 56 14.9877 59.358 14.9877 63.5Z" fill="#65F9B3"/>
<path d="M48.9596 35.5C48.9596 39.6421 45.6045 43 41.4658 43C37.327 43 33.9719 39.6421 33.9719 35.5C33.9719 31.3579 37.327 28 41.4658 28C45.6045 28 48.9596 31.3579 48.9596 35.5Z" fill="#65F9B3"/>
<path d="M83.3312 7.5C83.3312 11.6421 79.976 15 75.8374 15C71.6988 15 68.3438 11.6421 68.3438 7.5C68.3438 3.35785 71.6988 0 75.8374 0C79.976 0 83.3312 3.35785 83.3312 7.5Z" fill="#65F9B3"/>
<path d="M76.6369 49.8C80.7757 49.8 84.1308 46.4422 84.1308 42.3C84.1308 38.1579 80.7757 34.8 76.6369 34.8C72.4982 34.8 69.1431 38.1579 69.1431 42.3C69.1431 46.4422 72.4982 49.8 76.6369 49.8Z" fill="#65F9B3"/>
<path d="M35 42.8081L32.7147 40L14 56.192L16.2853 59L35 42.8081Z" fill="#65F9B3"/>
<path d="M70.3029 49.4441L67.9537 46.208L47.6531 60.9693L50.0023 64.2054L70.3029 49.4441Z" fill="#65F9B3"/>
<path d="M15.0081 35L12 37.5L33.9919 63L36.5 60.5L15.0081 35Z" fill="#65F9B3"/>
<path d="M70.6851 14.6135L68.116 11.5493L47.4595 28.8965L50.0285 31.9606L70.6851 14.6135Z" fill="#65F9B3"/>
<path d="M96.888 9.28572C91.0705 10.9556 89.9931 19.5743 95.1643 22.6985C96.5648 23.5604 97.8576 23.7759 101.898 23.7759C106.099 23.7759 107.015 23.9375 107.931 24.8532C109.008 25.9305 108.9 27.3849 107.715 28.1929C107.392 28.4084 105.022 28.6238 102.49 28.6238C98.9888 28.6238 97.6421 28.4084 97.1573 27.8158C96.7264 27.331 95.5414 27.0078 94.1408 27.0078C91.3937 27.0078 91.1243 27.8158 92.848 30.6708C94.4102 33.2025 96.7803 34.0105 102.544 34.0105C107.931 34.0105 110.139 33.3641 112.186 31.1556C113.91 29.2702 114.341 25.1764 113.102 22.7524C111.54 19.7897 109.439 18.9279 103.783 18.9279C99.4197 18.9279 98.6117 18.7663 97.6421 17.7967C96.6725 16.8271 96.6187 16.5577 97.3189 15.5343C98.0192 14.5108 98.6656 14.3492 102.867 14.1876C107.176 14.026 107.769 14.1337 108.577 15.1572C109.331 16.0729 109.978 16.2884 111.809 16.1268C113.91 15.9652 114.125 15.8575 113.964 14.6185C113.694 12.6794 112.186 10.7402 110.031 9.66278C108.038 8.58545 99.9584 8.36999 96.888 9.28572Z" fill="#F5F6FF"/>
<path d="M118.165 11.3867V14.0801H129.477H140.789V11.3867V8.69336H129.477H118.165V11.3867Z" fill="#F5F6FF"/>
<path d="M144.56 11.3865V14.0798H152.209H159.804L158.78 15.211C156.841 17.3118 155.063 17.8504 149.677 17.8504H144.56V25.9304V34.0104H147.253H149.946V28.6237V23.2371L152.37 23.1294C153.717 23.1294 155.063 23.0755 155.441 23.0216C155.764 22.9678 157.434 25.1763 159.05 27.9235C160.719 30.6707 162.335 33.1485 162.659 33.4717C162.982 33.7949 164.49 34.0104 166.052 33.9027L168.853 33.7411L164.813 27.2232L160.827 20.6515L162.12 19.4126C163.736 17.9043 165.46 14.2952 165.567 12.1945C165.783 8.42383 166.645 8.69317 155.063 8.69317H144.56V11.3865Z" fill="#F5F6FF"/>
<path d="M169.877 8.96257C169.877 9.5551 178.172 24.3146 178.495 24.3146C178.711 24.3146 179.519 23.1295 180.327 21.6212L181.781 18.9818L178.98 13.8106L176.125 8.69324H173.001C171.277 8.69324 169.877 8.80097 169.877 8.96257Z" fill="#F5F6FF"/>
<path d="M190.669 10.9556C189.969 12.2484 187.437 16.7732 185.067 21.0287L180.758 28.8393L182.051 31.4249C182.751 32.8254 183.667 34.0105 184.044 34.0105C184.421 34.0105 187.006 29.8089 189.753 24.6916C192.555 19.6281 195.679 13.9183 196.702 12.033L198.534 8.69324H195.248H192.016L190.669 10.9556Z" fill="#F5F6FF"/>
<path d="M202.197 21.3519V34.0105H204.89H207.583V21.3519V8.69324H204.89H202.197V21.3519Z" fill="#F5F6FF"/>
<path d="M118.165 25.9305V34.0105H129.477H140.789V31.3172V28.6238H132.171H123.552V25.9305V23.2372H130.824H138.096V20.5439V17.8505H128.131H118.165V25.9305Z" fill="#F5F6FF"/>
<path d="M97.696 46.3998V49.0931H109.008H120.32V46.3998V43.7065H109.008H97.696V46.3998Z" fill="#65F9B3"/>
<path d="M124.629 46.3998V49.0931H135.672H146.714V46.3998V43.7065H135.672H124.629V46.3998Z" fill="#65F9B3"/>
<path d="M158.296 44.5145C153.825 46.2382 149.946 51.7326 149.946 56.3651C149.946 59.1123 151.616 62.9368 153.771 65.0915C159.373 70.7475 168.584 69.9395 173.001 63.4216C175.479 59.7048 175.317 58.7891 172.355 58.7891C170.362 58.7891 169.769 59.0584 168.799 60.2435C166.106 63.6909 162.174 64.6067 158.834 62.5598C152.693 58.7891 155.387 49.0931 162.605 49.0931C165.137 49.0931 168.045 50.7091 168.907 52.5944C169.446 53.7795 169.823 53.9411 172.409 53.9411H175.263L174.455 52.0019C173.217 48.9315 171.601 47.0462 169.015 45.5379C166.052 43.8142 161.42 43.3294 158.296 44.5145Z" fill="#65F9B3"/>
<path d="M179.034 56.3652V69.0238H181.727H184.421V63.6372V58.2505H190.346H196.271V63.6372V69.0238H198.695H201.119V56.3652V43.7065H198.695H196.271V48.2852V52.8638H190.346H184.421V48.2852V43.7065H181.727H179.034V56.3652Z" fill="#65F9B3"/>
<path d="M106.315 60.9438V69.0238H109.008H111.701V60.9438V52.8638H109.008H106.315V60.9438Z" fill="#65F9B3"/>
<path d="M124.629 60.9438V69.0238H135.672H146.714V66.3305V63.6371H138.096H129.477V60.9438V58.2505H137.018H144.56V55.5572V52.8638H134.594H124.629V60.9438Z" fill="#65F9B3"/>
</svg>
