<svg width="66" height="66" viewBox="0 0 66 66" fill="none" xmlns="http://www.w3.org/2000/svg">
<path d="M32.9767 0C26.4545 0 20.0788 1.93403 14.6558 5.55756C9.23285 9.18108 5.00614 14.3314 2.51021 20.3571C0.0142806 26.3828 -0.638756 33.0132 0.633654 39.4101C1.90606 45.8069 5.04678 51.6829 9.65865 56.2947C14.2705 60.9066 20.1464 64.0473 26.5433 65.3197C32.9401 66.5921 39.5706 65.9391 45.5963 63.4432C51.622 60.9473 56.7723 56.7206 60.3958 51.2976C64.0194 45.8746 65.9534 39.4989 65.9534 32.9767C65.9534 28.6461 65.1005 24.358 63.4432 20.3571C61.786 16.3562 59.357 12.7208 56.2948 9.65866C53.2326 6.59649 49.5973 4.16743 45.5964 2.51019C41.5954 0.852957 37.3073 -1.31322e-06 32.9767 0ZM32.9767 9.89297C34.9333 9.89297 36.8461 10.4732 38.473 11.5603C40.0999 12.6473 41.3679 14.1924 42.1167 16.0001C42.8654 17.8078 43.0613 19.7969 42.6796 21.716C42.2979 23.6351 41.3557 25.3978 39.9721 26.7814C38.5886 28.165 36.8258 29.1072 34.9068 29.4889C32.9877 29.8706 30.9986 29.6747 29.1908 28.9259C27.3831 28.1772 25.8381 26.9092 24.751 25.2823C23.6639 23.6554 23.0837 21.7426 23.0837 19.786C23.0837 17.1622 24.126 14.6459 25.9813 12.7906C27.8366 10.9353 30.3529 9.89304 32.9767 9.89304V9.89297ZM32.9767 57.519C29.0686 57.5012 25.2238 56.5301 21.7759 54.6902C18.328 52.8502 15.3811 50.1968 13.1907 46.9601C13.3493 40.3648 26.3814 36.7342 32.9767 36.7342C39.572 36.7342 52.6042 40.3648 52.7627 46.9601C50.5699 50.1943 47.6224 52.8458 44.175 54.6855C40.7277 56.5252 36.8842 57.4977 32.9767 57.519V57.519Z" fill="#4C6EF8"/>
</svg>
