<svg width="100" height="100" viewBox="0 0 100 100" fill="none" xmlns="http://www.w3.org/2000/svg">
<rect class="delete_image" width="100" height="100" rx="15" fill="#E83E8C"/>
<g clip-path="url(#clip1110)">
<path d="M55.4969 50.0606L78.8597 26.6971C80.3802 25.1774 80.3802 22.7203 78.8597 21.2006C77.34 19.6809 74.8829 19.6809 73.3632 21.2006L49.9997 44.5641L26.6369 21.2006C25.1164 19.6809 22.66 19.6809 21.1403 21.2006C19.6199 22.7203 19.6199 25.1774 21.1403 26.6971L44.5031 50.0606L21.1403 73.4242C19.6199 74.9439 19.6199 77.401 21.1403 78.9207C21.8977 79.6788 22.8935 80.0596 23.8886 80.0596C24.8837 80.0596 25.8788 79.6788 26.6369 78.9207L49.9997 55.5572L73.3632 78.9207C74.1213 79.6788 75.1164 80.0596 76.1115 80.0596C77.1066 80.0596 78.1017 79.6788 78.8597 78.9207C80.3802 77.401 80.3802 74.9439 78.8597 73.4242L55.4969 50.0606Z" fill="white"/>
</g>
<defs>
<clipPath id="clip1110">
<rect width="60" height="60" fill="white" transform="translate(20 20)"/>
</clipPath>
</defs>
</svg>
