<svg width="100" height="100" viewBox="0 0 100 100" fill="none" xmlns="http://www.w3.org/2000/svg">
<rect width="100" height="100" rx="15" fill="#FEBB82"/>
<path d="M56.875 78.1392C56.3143 78.2799 55.7426 78.4049 55.1752 78.5102C53.6918 78.7881 52.7111 80.2251 52.9855 81.7207C53.121 82.4564 53.5358 83.0693 54.099 83.4693C54.6795 83.8809 55.4182 84.0667 56.171 83.9256C56.8468 83.7993 57.5278 83.6507 58.1961 83.4827C59.6609 83.1155 60.5533 81.6207 60.1879 80.1459C59.8233 78.6698 58.3407 77.7716 56.875 78.1392Z" fill="white"/>
<path d="M77.0834 41.2315C77.2749 41.8129 77.6404 42.2874 78.1022 42.6153C78.7869 43.1011 79.6828 43.2645 80.5378 42.9797C81.9711 42.5003 82.7478 40.9434 82.2736 39.5003C82.0575 38.8424 81.8178 38.1825 81.5624 37.5399C81.0017 36.1279 79.4116 35.4404 78.0091 36.0052C76.608 36.5697 75.9253 38.1719 76.4864 39.5844C76.701 40.1244 76.902 40.6788 77.0834 41.2315Z" fill="white"/>
<path d="M65.7527 74.2079C65.2705 74.5286 64.7728 74.839 64.2714 75.1298C62.9633 75.8899 62.5153 77.5742 63.2695 78.8912C63.4743 79.2495 63.7471 79.5423 64.0612 79.7661C64.9045 80.3638 66.0498 80.4533 67.0033 79.9C67.5993 79.5537 68.1921 79.1853 68.7664 78.8027C70.0255 77.9648 70.3721 76.2563 69.5398 74.9874C68.7076 73.718 67.0123 73.3694 65.7527 74.2079Z" fill="white"/>
<path d="M83.9739 48.9219C83.9144 47.4021 82.6436 46.2192 81.1343 46.2785C79.627 46.3384 78.4517 47.619 78.5109 49.1382C78.5336 49.7191 78.5394 50.3087 78.5261 50.8889C78.5049 51.842 78.9677 52.6916 79.6869 53.2022C80.1153 53.5061 80.6353 53.6901 81.1991 53.703C82.7079 53.7367 83.9582 52.5313 83.9917 51.0107C84.0068 50.3173 84.0011 49.6149 83.9739 48.9219Z" fill="white"/>
<path d="M76.6374 66.9641C75.4275 66.0498 73.7159 66.298 72.8097 67.5145C72.4627 67.9804 72.0973 68.4405 71.7231 68.8836C70.7452 70.0409 70.8833 71.7792 72.0322 72.765C72.0977 72.821 72.1639 72.8724 72.2326 72.9206C73.3748 73.7318 74.9623 73.5454 75.8858 72.4537C76.3327 71.9251 76.7682 71.3755 77.1829 70.8191C78.0892 69.6026 77.8439 67.8772 76.6374 66.9641Z" fill="white"/>
<path d="M80.6562 57.0096C79.2156 56.5547 77.6815 57.3624 77.2301 58.8135C77.0574 59.3679 76.8659 59.9249 76.6592 60.4704C76.2053 61.6713 76.6402 62.9927 77.6371 63.7007C77.82 63.8302 78.0214 63.9399 78.2402 64.0232C79.6506 64.5653 81.23 63.8525 81.7677 62.4312C82.0131 61.7826 82.2408 61.1199 82.4468 60.4608C82.8977 59.0095 82.0964 57.4646 80.6562 57.0096Z" fill="white"/>
<path d="M44.9421 78.5356C42.4981 78.0935 40.1536 77.3408 37.9305 76.291C37.9042 76.2772 37.8806 76.2614 37.853 76.2488C37.3291 76.0004 36.8061 75.7343 36.2992 75.4563C36.2974 75.4542 36.2942 75.4529 36.2914 75.4517C35.3613 74.9358 34.4536 74.3649 33.5717 73.7396C20.7126 64.6151 17.6207 46.6534 26.6797 33.7004C28.6495 30.8848 31.0333 28.5359 33.6909 26.6742C33.7236 26.6512 33.7563 26.6284 33.7888 26.6053C43.1537 20.1054 55.8697 19.6674 65.8138 26.3466L63.678 29.455C63.0843 30.3202 63.4495 30.9507 64.489 30.8564L73.7662 30.0198C74.8069 29.9256 75.4293 29.0187 75.1494 28.0063L72.6582 18.9648C72.3793 17.9511 71.6652 17.8298 71.0709 18.6949L68.9302 21.8106C61.6326 16.8761 52.8799 14.9945 44.1924 16.512C43.3174 16.6646 42.4547 16.8513 41.6038 17.0686C41.5972 17.0698 41.592 17.0705 41.5867 17.0717C41.5538 17.0798 41.5205 17.0905 41.4885 17.0995C33.9971 19.0373 27.461 23.4385 22.797 29.7181C22.7577 29.7651 22.7172 29.811 22.6801 29.8621C22.525 30.0725 22.3711 30.2878 22.2203 30.503C21.9739 30.8558 21.731 31.2175 21.4985 31.5791C21.4695 31.6227 21.4472 31.667 21.4218 31.711C17.5731 37.7186 15.7167 44.664 16.035 51.7348C16.0358 51.7581 16.0344 51.7815 16.035 51.8053C16.0659 52.4961 16.1202 53.1963 16.1941 53.8857C16.198 53.9302 16.2078 53.9723 16.2153 54.0168C16.2916 54.71 16.3873 55.4048 16.5073 56.0995C17.727 63.1874 21.0463 69.5655 26.0201 74.5282C26.0317 74.5399 26.0437 74.5525 26.0554 74.5646C26.0594 74.5692 26.064 74.5715 26.0679 74.5758C27.4042 75.9035 28.8578 77.1315 30.4229 78.2418C34.5186 81.149 39.0794 83.0706 43.9774 83.956C45.4635 84.225 46.8831 83.2284 47.1498 81.7322C47.4162 80.2349 46.4278 78.8037 44.9421 78.5356Z" fill="white"/>
<path d="M48.3249 28.0012C47.1025 28.0012 46.1123 28.9995 46.1123 30.2291V52.4253L66.2652 62.9194C66.5896 63.0886 66.9369 63.1682 67.2786 63.1682C68.0791 63.1682 68.8522 62.7292 69.2453 61.9631C69.8058 60.8696 69.3816 59.5264 68.2962 58.9617L50.5351 49.7123V30.2291C50.5349 28.9995 49.5459 28.0012 48.3249 28.0012Z" fill="white"/>
</svg>
